<?xml version="1.0" standalone="no"?>
<!DOCTYPE svg PUBLIC "-//W3C//DTD SVG 20010904//EN"
 "http://www.w3.org/TR/2001/REC-SVG-20010904/DTD/svg10.dtd">
<svg version="1.0" xmlns="http://www.w3.org/2000/svg"
 width="260.000000pt" height="260.000000pt" viewBox="0 0 260.000000 260.000000"
 preserveAspectRatio="xMidYMid meet">
<metadata>
Created by potrace 1.11, written by Peter Selinger 2001-2013
</metadata>
<g transform="translate(0.000000,260.000000) scale(0.100000,-0.100000)"
fill="#000000" stroke="none">
<path d="M268 2285 c-2 -11 -3 -162 -3 -335 l0 -315 23 -1 c13 -1 26 6 30 14
3 9 6 149 6 311 l1 295 265 2 c146 1 590 5 987 8 l723 7 0 -187 c0 -103 2
-185 5 -183 5 6 12 362 7 377 -2 7 -82 11 -225 12 -196 0 -1107 8 -1629 14
-180 2 -187 1 -190 -19z"/>
<path d="M730 1900 l0 -25 415 0 415 0 -415 -415 c-388 -388 -415 -417 -415
-450 0 -34 16 -19 470 435 259 258 470 472 470 475 0 3 -212 5 -470 5 l-470 0
0 -25z"/>
<path d="M1488 1611 c-175 -174 -318 -319 -318 -323 0 -5 138 -145 306 -313
288 -287 309 -305 346 -308 21 -2 41 -1 43 3 2 4 -133 143 -301 311 l-304 304
317 317 c175 175 313 318 308 319 -86 6 -55 30 -397 -310z"/>
<path d="M2301 1684 c0 -11 3 -14 6 -6 3 7 2 16 -1 19 -3 4 -6 -2 -5 -13z"/>
<path d="M2278 610 l3 -260 -28 -1 c-68 -1 -622 -8 -1260 -14 l-693 -6 0 142
c0 78 -3 140 -6 137 -4 -5 -8 -218 -5 -283 1 -6 20 -11 44 -11 38 -1 1402 -14
1820 -18 152 -1 177 1 178 14 1 8 3 138 5 288 l4 272 -32 0 -33 0 3 -260z"/>
<path d="M291 674 c0 -11 3 -14 6 -6 3 7 2 16 -1 19 -3 4 -6 -2 -5 -13z"/>
</g>
</svg>
